Simulation
nRows=27
nColumns=15
endheader
time  TH_x TH_y TH_z SC_y  SC_z  SC_x  AC_y  AC_z  AC_x  GH_y  GH_z  GH_yy  EL_x  PS_y
0.0  0.000000  0.000000  0.000000  -24.914777427600132  2.8587127472960985  -3.6108687526607683  56.95830215070275  3.6101043401479997  4.16609077144876  -84.06912322748387  1.1512127755170722  124.38309317087561  20.197396504325262  120.000000
0.04016479400749064  0.000000  0.000000  0.000000  -24.959805649763542  2.867380419589873  -3.632103573082709  56.94133849590365  3.6880081536919898  4.172383571370154  -76.20314386517316  1.1642622991031206  116.4263384926701  20.11167487487978  120.000000
0.08032958801498127  0.000000  0.000000  0.000000  -25.093892030343994  2.900474053805529  -3.687806944609254  56.88432035858972  3.9086136838346657  4.175249790101806  -55.729794085083455  1.3315620635615768  95.67591191285426  19.86276949492767  120.000000
0.12049438202247191  0.000000  0.000000  0.000000  -25.321997509417066  2.9690354082818016  -3.770188573053551  56.77148022749548  4.242309846384718  4.156811670788283  -35.401367319124255  1.860203527116881  74.8753607012687  19.475468190870245  120.000000
0.16065917602996255  0.000000  0.000000  0.000000  -25.652419547719724  3.0730081827378126  -3.878271543709661  56.58810723791939  4.656676050766482  4.116025904848685  -22.99733614156195  2.7649297462211413  61.79920501032188  18.980423282783157  120.000000
0.20082397003745317  0.000000  0.000000  0.000000  -26.09061811526277  3.2079207221849417  -4.007871293183666  56.32890702740096  5.123687328987309  4.057943079759968  -16.372435599649485  3.964356665685276  54.30226403941179  18.40703085188768  120.000000
0.24098876404494382  0.000000  0.000000  0.000000  -26.63994185528937  3.3744955603384494  -4.150018169456512  55.997597493466365  5.622031250618717  3.9911832101496425  -12.766260543670759  5.39479650338626  49.629348655104856  17.782656882803035  120.000000
0.28115355805243447  0.000000  0.000000  0.000000  -27.29821282481416  3.5758465219835585  -4.291875130039498  55.60706165543254  6.1368116996313855  3.922096883195913  -10.716049493990212  7.014520334817423  46.32804301379947  17.12937211203774  120.000000
0.3213183520599251  0.000000  0.000000  0.000000  -28.05909693555748  3.8169940140529635  -4.417352635264356  55.17624947581939  6.658063344920875  3.8552592752050576  -9.517396274683813  8.792958021456279  43.70869026348322  16.465295655751927  120.000000
0.3614831460674157  0.000000  0.000000  0.000000  -28.912593276643936  4.104035402553711  -4.505986886999452  54.72518322338569  7.179502832455686  3.7956752541102836  -8.828207707815746  10.705205757939654  41.44790255998931  15.804877618442854  120.000000
0.40164794007490634  0.000000  0.000000  0.000000  -29.845496892693724  4.442309135672651  -4.532605240470557  54.27274422762154  7.696581616667598  3.747567791273699  -8.477944389263  12.72947694649243  39.397111385253154  15.159595488534697  120.000000
0.441812734082397  0.000000  0.000000  0.000000  -30.84248554318506  4.835709407649572  -4.470944717175045  53.835743459670475  8.205361368668369  3.7134547348849285  -8.383358304884764  14.844546257216889  37.49765141154188  14.53796364452538  120.000000
0.48197752808988764  0.000000  0.000000  0.000000  -31.88776481439103  5.286091516482562  -4.296720191363852  53.42775453058176  8.701933973070517  3.6941393449720805  -8.505825317483389  17.02834310445158  35.73745471223265  13.945684562869992  120.000000
0.5221423220973783  0.000000  0.000000  0.000000  -32.96602015877913  5.792566637153207  -3.9921386264063097  53.05835446291472  9.185241033268706  3.6930698880031896  -8.823529971931952  19.257705128429095  34.12250128252892  13.386001932583172  120.000000
0.5623071161048689  0.000000  0.000000  0.000000  -34.0607905407346  6.351206826866819  -3.5509007413725984  52.73547279070806  9.660668752927482  3.7193003247037333  -9.31224205163718  21.50921632755194  32.65699291944783  12.860396841017849  120.000000
0.6024719101123596  0.000000  0.000000  0.000000  -35.154273419259795  6.954794360835802  -2.970847912363838  52.467288856961886  10.133353192729691  3.7826954544540436  -9.941364315993955  23.760087534829424  31.33851499263571  12.369442741919778  120.000000
0.6426367041198502  0.000000  0.000000  0.000000  -36.22858967530586  7.593083768140482  -2.2518948446896077  52.261482845039744  10.605683858513114  3.8916955674627984  -10.677201926974076  25.988575484874527  30.15985465196435  11.912242224009768  120.000000
0.6828014981273408  0.000000  0.000000  0.000000  -37.26748308879896  8.253800246928874  -1.3980026356488238  52.12363644275444  11.079149450953237  4.052938215859217  -11.487401785015392  28.175077848151098  29.111791737382262  11.485927858801569  120.000000
0.7229662921348314  0.000000  0.000000  0.000000  -38.258118503342956  8.923815295913032  -0.4156107112547551  52.056251351773476  11.553557046629757  4.270305663864299  -12.341824547850052  30.303403590995423  28.182862686954056  11.085194428256811  120.000000
0.7631310861423221  0.000000  0.000000  0.000000  -39.191558274926  9.589940873718861  0.6862443327616794  52.05843515577943  12.027377522189619  4.5457126577555265  -13.21249495570122  32.361094406707046  27.358991777499547  10.70275587430619  120.000000
0.8032958801498127  0.000000  0.000000  0.000000  -40.06232389409282  10.239510571209822  1.8959168017896733  52.126110261628305  12.498217140732768  4.87906108105167  -14.07423446621957  34.33936071195646  26.624462499571788  10.330412404986227  120.000000
0.8434606741573034  0.000000  0.000000  0.000000  -40.8680379777552  10.861188967661276  3.199121590371867  52.25224447339673  12.963209196082756  5.268481166471465  -14.905684478643394  36.2330111479263  25.963690771130015  9.960313553122914  120.000000
0.883625468164794  0.000000  0.000000  0.000000  -41.60883376935126  11.445391344633867  4.579276770371397  52.42702367905935  13.419158981206532  5.710612149945332  -15.69019846244961  38.04003664560757  25.36312094139488  9.586566801237442  120.000000
0.9237902621722847  0.000000  0.000000  0.000000  -42.28655105370279  11.98457760885007  6.01750761857775  52.63836247191687  13.86248011938387  6.200762974005588  -16.416356269774457  39.760992313751544  24.812872557353977  9.206719300697975  120.000000
0.9639550561797753  0.000000  0.000000  0.000000  -42.90415526745502  12.473423796377045  7.4927957061560075  52.872608655721876  14.288902900485688  6.732894439550365  -17.07805901638843  41.398091127476334  24.307760578833655  8.822777610808762  120.000000
1.004119850187266  0.000000  0.000000  0.000000  -43.46530611947994  12.908829510898599  8.982038793419965  53.11566784307641  14.693282569524747  7.299367651571141  -17.674047498239364  42.95426689012622  23.84737795276056  8.441204920518771  120.000000
1.0442846441947566  0.000000  0.000000  0.000000  -43.97405491706273  13.289882118974115  10.460489449411448  53.35433034320105  15.06953273938848  7.89069376283306  -18.206856147858918  44.43212230620749  23.435150100332187  8.072060338571223  120.000000
